<!DOCTYPE svg PUBLIC "-//W3C//DTD SVG 1.1//EN" "http://www.w3.org/Graphics/SVG/1.1/DTD/svg11.dtd">
<svg xmlns="http://www.w3.org/2000/svg" viewBox="0 0 512 512">
<path fill="#fbfbfb" stroke="#fbfbfb" d="M170.038 91.772C153.839 108.552 142 142.323 142 171.753c0 10.732-.734 13.244-3.875 13.264-1.444.009-6.57.823-11.393 1.809-10.608 2.169-10.141 2.495-15.2-10.606-7.168-18.559-10.919-43.531-8.741-58.186 1.24-8.345 1.048-9.104-1.675-6.639-12.621 11.422-14.766 45.919-4.62 74.303 1.927 5.391 3.504 9.895 3.504 10.008 0 .113-3.037 1.997-6.75 4.187-37.757 22.267-49.411 63.981-25.258 90.408l5.099 5.579-5.326 3.407c-6.583 4.211-13.093 11.475-16.747 18.685-2.226 4.394-3.922 6.168-8.604 9-10.777 6.52-17.232 18.524-17.883 33.255-.551 12.459 6.909 27.928 22.724 47.12C59.731 422.488 69.194 426.518 95 427.678c18.836.847 27.024-2.525 24.186-9.962-1.103-2.89-1.012-3.393.904-4.966 3.186-2.616 3.638-2.221 3.762 3.284.278 12.325 5.973 13.926 17.247 4.851 12.519-10.079 15.13-10.5 28.005-4.523 32.888 15.268 65.943 16.662 94.396 3.98 11.559-5.152 11.701-5.151 23.555.226 21.185 9.608 29.286 5.291 20.97-11.177-1.636-3.24-2.648-6.004-2.25-6.143 3.404-1.181 7.922-4.211 9.506-6.373 1.901-2.595 1.9-2.678-.108-7.217-4.051-9.158-17.495-20.622-28.41-24.227-2.895-.955-7.098-3.234-9.34-5.063-5.618-4.582-10.062-6.241-18.61-6.945-11.259-.928-20.813-5.444-20.813-9.838 0-1.302 14.794-4.685 28.738-6.571 8.771-1.186 16.213-3.418 23.084-6.923l4.226-2.156 6.426 1.984c59.457 18.365 141.216-8.521 173.07-56.911 34.676-52.678 12.524-83.987-36.742-51.931-5.914 3.848-6.627 4.063-11.59 3.499-10.605-1.208-23.546 2.232-35.479 9.429-9.528 5.747-12.393 5.193-8.893-1.721 1.054-2.081 2.217-5.179 2.584-6.883.595-2.757 1.298-3.274 6.372-4.686 15.779-4.392 29.963-19.98 33.269-36.562l1.126-5.653 7.748-3.698c22.051-10.526 39.399-37.921 33.441-52.81-7.666-19.16-67.662-11.861-116.018 14.115-28.339 15.223-72.69 53.976-94.063 82.189l-8.178 10.797-3.399-5.297c-12.181-18.98-41.375-34.213-72.911-38.044-11.304-1.373-10.777-.676-10.797-14.282-.04-25.926 6.913-56.071 19.654-85.22 1.556-3.56-3.86-.455-9.63 5.522M420 120.516c-9.582 1.605-15.695 3.264-12.5 3.392 1.1.044 4.7-.365 8-.91 7.027-1.16 34.089-1.476 37-.432 1.924.691 1.933.647.22-1.168-2.33-2.47-20.339-2.955-32.72-.882m-17.187 4.167c.721.289 1.584.253 1.916-.079.332-.332-.258-.568-1.312-.525-1.165.048-1.402.285-.604.604m26.949 2.259c-6.768 2.163-15.762 7.677-15.762 9.662 0 3.908 13.265-.386 20.315-6.576 6.09-5.347 4.946-6.123-4.553-3.086M406.5 139.776c-2.235.481-5.5 3.081-5.5 4.379 0 1.578 4.767.854 7.139-1.084 2.624-2.144 1.694-4.013-1.639-3.295M394 175.808c0 .339 1.182 1.559 2.626 2.711 3.321 2.648 2.119 5.452-5.548 12.943-2.793 2.73-5.078 5.339-5.078 5.798 0 2.778 17.128-12.894 20.041-18.337.827-1.544.604-1.955-1.269-2.336-4.576-.932-10.772-1.38-10.772-.779m-230 19.953c0 .582 3.262 1.583 7.25 2.225 27.754 4.467 46.533 15.467 53.174 31.146 1.24 2.927 1.524 3.118 2.168 1.463 3.222-8.282-20.545-27.874-40.092-33.047-7.785-2.06-22.5-3.229-22.5-1.787m172 21.06c0 .58 2.691 2.77 5.979 4.867 3.289 2.097 5.989 4.334 6 4.972.033 1.819-7.038 10.277-13.87 16.59-6.978 6.447-6.895 7.048.391 2.852 8.9-5.125 23.5-20.565 23.5-24.852 0-.548-3.937-1.728-8.75-2.624-4.812-.895-9.762-1.904-11-2.243-1.3-.356-2.25-.171-2.25.438m125.5 2.072c-5.946 2.165-14.698 6.243-14.285 6.656.161.161 4.791-.823 10.289-2.186 7.156-1.775 11.75-2.355 16.168-2.042 5.012.354 6.071.172 5.632-.97-1.434-3.738-9.687-4.414-17.804-1.458m-274.489 9.594c-1.468 1.769-.656 4.513 1.335 4.513 2.002 0 3.984-2.698 3.297-4.487-.741-1.931-3.041-1.944-4.632-.026m276.737 7.037c-5.479 7.343-6.075 9.111-1.656 4.913 2.861-2.718 7.464-10.214 6.725-10.953-.177-.177-2.458 2.541-5.069 6.04M413 234.412c-5.999 1.358-14.83 5.04-9.803 4.087 1.484-.281 7.066-.546 12.405-.589 5.34-.042 10.876-.556 12.303-1.14l2.595-1.063-4-1.276c-4.953-1.581-6.585-1.584-13.5-.019m-220 8.58-5.5 1.869 8-.491c4.4-.27 9.125-.753 10.5-1.074l2.5-.583-2.5-.757c-3.998-1.21-7.126-.961-13 1.036m-82.783 2.174c.242.734 1.467 1.484 2.723 1.668 1.551.227 2.142-.093 1.843-1-.242-.734-1.467-1.484-2.723-1.668-1.551-.227-2.142.093-1.843 1M74 339.5c1.292 1.375 2.574 2.5 2.849 2.5.275 0-.557-1.125-1.849-2.5-1.292-1.375-2.574-2.5-2.849-2.5-.275 0 .557 1.125 1.849 2.5m-15.25-.42c-4.338 2.527.527 5.906 5.681 3.946 3.06-1.163 3.284-2.573.635-3.991-2.396-1.282-4.057-1.27-6.316.045m135.836 5.426c-8.332 4.474-19.725 8.585-30.586 11.035l-6.5 1.467 9-.434c13.787-.664 30.988-7.089 37.424-13.979 3.689-3.948.27-3.249-9.338 1.911m-116.362 4.891c10.019 2.933 18.085 9.333 22.338 17.725 2.891 5.706 3.506 6.108 2.491 1.628-2.687-11.866-11.618-19.607-23.481-20.354l-6.072-.382 4.724 1.383M86 357c0 .55.477 1 1.059 1s.781-.45.441-1-.816-1-1.059-1-.441.45-.441 1m171.142 5.038c3.653.427 7.561 1.268 8.684 1.869 1.123.601 3.085 1.057 4.358 1.012 6.383-.223-5.894-3.863-12.684-3.761l-7 .105 6.642.775m-44.697 8.149c-6.71 4.054-18.675 9.558-26.945 12.396l-4 1.372 4.931-.566c10.45-1.199 32.881-10.432 34.294-14.116 1.318-3.434-1.621-3.11-8.28.914m58.715 2.306c.271.271 2.723.916 5.45 1.433 8.59 1.629 15.651 4.862 23.198 10.622 6.5 4.96 7.143 5.258 5.815 2.689-3.019-5.836-10.386-11.35-18.427-13.79-4.334-1.316-17.161-2.078-16.036-.954m-159.693 7.808c-1.781 10.82-4.896 13.047-11.467 8.199-6.407-4.727-6.749-2.346-.917 6.386 4.502 6.742 5.409 7.273 6.307 3.696.735-2.927 9.384-12.588 13.004-14.525 3.685-1.972 3.256-3.343-1.815-5.806l-4.421-2.148-.691 4.198M66 381.128c0 2.857 6.981 12.82 13.666 19.506 8.979 8.979 11.213 9.575 4.42 1.18-2.753-3.402-6.389-8.781-8.08-11.954C72.268 382.846 66 377.377 66 381.128m226.099 24.122c.237.137 2.389 2.05 4.781 4.25l4.348 4-1.624-3.22c-1.598-3.168-4.28-5.28-6.705-5.28-.678 0-1.038.113-.8.25" fill-rule="evenodd"/>
<path fill="#eb0817" stroke="#eb0817" d="M171.393 91.19c-16.267 15.384-27.234 46.258-29.227 82.283L141.5 185.5l-3 .245c-1.65.135-6.697.976-11.215 1.87-10.24 2.026-10.767 1.809-14.23-5.856-7.816-17.297-11.544-37.045-10.851-57.477.503-14.812.174-15.182-5.176-5.832-8.781 15.349-8.769 42.124.03 67.054 3.778 10.704 3.744 11.051-1.308 13.598-38.152 19.234-51.739 65.139-26.966 91.111 3.044 3.191 5.35 5.938 5.125 6.105-.225.166-2.773 1.786-5.661 3.598-6.665 4.182-13.618 11.892-17.299 19.185-2.312 4.581-3.735 6.101-7.345 7.849C32.731 332.213 25 346.817 25 362.094c0 14.349 23.95 51.739 37.284 58.207 15.468 7.502 44.725 9.888 52.931 4.317 2.941-1.997 3.285-2.729 3.285-6.992 0-3.555.492-5.125 1.941-6.194 2.962-2.185 3.277-1.852 3.76 3.976.987 11.91 5.95 13.607 15.983 5.467 6.814-5.529 16.222-10.31 18.75-9.528.861.267 6.716 2.821 13.012 5.676 32.04 14.533 71.967 14.694 96.732.39 5.502-3.178 5.376-3.195 18.635 2.59 13.241 5.778 16.611 6.643 19.613 5.037 4.71-2.521 4.315-10.68-.87-17.961-2.522-3.542-2.187-4.603 1.703-5.381 3.778-.755 8.241-5.063 8.241-7.954 0-7.972-17.612-24.323-30-27.853-2.475-.705-6.264-2.766-8.421-4.579-5.339-4.489-13.312-7.312-20.649-7.312-7.08 0-12.211-1.922-16.68-6.247-3.972-3.844-4.106-5.536-.5-6.29 1.512-.317 5.45-1.2 8.75-1.964 3.3-.763 9.87-1.867 14.601-2.453 9.887-1.224 16.944-3.128 25.247-6.812 5.295-2.35 6.24-2.482 10-1.4 31.01 8.923 66.634 7.921 98.701-2.778 41.418-13.818 69.778-37.202 85.583-70.568 20.387-43.035-5.198-61.077-46.843-33.032-5.013 3.376-5.487 3.493-11.764 2.91-11.051-1.027-24.486 2.86-35.787 10.355-7.61 5.047-12.522 3.695-8.558-2.355.923-1.41 2.201-4.617 2.838-7.126 1.082-4.264 1.448-4.638 5.57-5.694 16.582-4.25 30.754-19.352 34.252-36.498 1.279-6.271 1.34-6.354 6.033-8.197 25.136-9.874 45.795-43.479 34.58-56.251-5.18-5.9-10.081-7.111-28.453-7.028-39.402.176-81.856 17.444-122.5 49.826-16.439 13.097-48.535 45.374-57 57.322-7.372 10.404-7.985 10.71-11.069 5.53-10.888-18.29-41.795-35.148-70.431-38.417-14.5-1.655-13.165-.766-13.964-9.294-1.856-19.806 5.296-58.012 15.166-81.021l3.976-9.268c1.176-2.742-2.084-.979-7.285 3.94M427 118.693c-10.936 1.167-36.949 7.691-35.689 8.951.241.241 5.782-.529 12.314-1.711 13.895-2.514 43.42-3.81 48.273-2.119 3.798 1.324 4.854-.035 2.055-2.643-3.223-3.003-13.326-3.931-26.953-2.478m1.64 7.39c-13.965 4.803-21.091 12.947-11.283 12.895 5.185-.027 10.638-2.49 17.393-7.855 8.699-6.909 5.94-9.185-6.11-5.04m-25.674 14.161c-4.613 3.108-4.513 5.169.27 5.566 2.935.243 4.291-.246 6.324-2.279 4.891-4.891-.342-7.5-6.594-3.287m-11.975 34.506c-.005.412 1.4 1.909 3.123 3.325 2.313 1.901 2.965 3.1 2.495 4.583-.747 2.353-9.393 11.624-15.053 16.14-5.46 4.356-3.86 5.015 3.124 1.287 7.51-4.009 14.192-9.771 19.833-17.102 5.196-6.752 5.365-6.476-4.851-7.897-9.284-1.292-8.66-1.267-8.671-.336M163 195.933c0 2.194 1.156 2.636 9.304 3.564 24.86 2.829 46.91 16.639 51.745 32.406 2.072 6.758 2.089 6.784 2.988 4.597 3.755-9.132-4.92-21.952-21.687-32.048-13.276-7.994-42.35-13.843-42.35-8.519m171.201 20.185c.395 1.197 4.068 4.206 11.235 9.202 3.397 2.368-8.277 15.642-21.304 24.224-9.148 6.027 1.343 3.33 11.868-3.051 9.26-5.614 23-20.858 23-25.518 0-1.173-2.381-1.992-9.75-3.356a7715.689 7715.689 0 0 1-12.627-2.344c-2.159-.405-2.764-.194-2.422.843M462 217.889c-7.112 2.304-17.22 7.457-19.06 9.717-1.296 1.592-1.251 1.697.452 1.058 12.26-4.603 30.041-7.421 35.608-5.643 2.206.704 1.359-3.119-1.167-5.271-2.632-2.242-8.646-2.189-15.833.139m.487 17.193c-7.122 9.57-8.609 13.124-4.59 10.973 4.392-2.35 14.103-16.137 14.103-20.022 0-2.704-2.623-.209-9.513 9.049m-276.118-6.522c-1.512 2.307-1.525 2.712-.135 4.103 3.006 3.005 7.579-.526 6.221-4.804-.847-2.668-4.126-2.29-6.086.701m221.131 6.317c-12.439 4.491-17.428 9.101-6 5.546 2.75-.856 9.725-1.702 15.5-1.882 10.572-.327 14-.982 14-2.673 0-3.176-15.621-3.835-23.5-.991m-211.802 6.171c-4.524 1.121-15.023 5.961-14.363 6.621.255.254 2.23-.013 4.39-.595 2.161-.582 8.515-1.445 14.122-1.92 5.607-.474 10.492-1.16 10.857-1.524 2.293-2.293-8.606-4.168-15.006-2.582M109 244.3c0 1.836 2.087 3.7 4.141 3.7 2.375 0 3.289-1.777 1.823-3.544-1.5-1.807-5.964-1.924-5.964-.156m-38.115 93.539c2.864 4.021 4.747 5.385 6.817 4.936 1.484-.323 1.11-1.035-2.147-4.083-4.842-4.53-7.654-5.044-4.67-.853M56.861 339l-2.361 2 2.361 2C60.8 346.338 68 345.045 68 341s-7.2-5.338-11.139-2m137.642 4.541c-9.978 5.453-23.361 9.942-35.479 11.902-12.632 2.043-12.391 2.557 1.197 2.557 9.427 0 13.18-.471 20.38-2.557 14.062-4.075 27.87-12.254 25.945-15.369-1.126-1.822-3.739-1.07-12.043 3.467m-124.385 4.298c-1.553 1.059-.536 1.494 6.107 2.614 5.331.899 11.757 3.801 9.525 4.301-3.321.745-1.219 5.246 2.45 5.246 2.082 0 2.363-2.004.55-3.922-1.032-1.092-.856-1.12 1.008-.161 3.533 1.818 9.899 10.533 11.738 16.07 1.97 5.931 3.952 5.705 2.975-.34-1.561-9.663-7.159-17.849-14.971-21.893-4.394-2.274-17.024-3.522-19.382-1.915M249 361.184c-2.233 1.053-1.647 1.253 5.5 1.882 4.4.387 9.267 1.206 10.815 1.819 3.471 1.375 7.685 1.452 7.685.141 0-3.527-18.414-6.475-24-3.842m-5.971 2.777c-.809.512-1.211 1.191-.893 1.509.319.318 1.148-.108 1.844-.946 1.443-1.738 1.166-1.902-.951-.563m-28.611 4.216c-6.745 4.31-19.274 10.025-29.162 13.301-9.58 3.175-10.011 4.559-1.046 3.362 13.873-1.853 37.79-11.865 37.79-15.819 0-3.861-2.435-4.132-7.582-.844m54.258 4.214c-5.713 2.128-5.776 2.913-.176 2.187 9.7-1.259 24.078 4.528 34.172 13.754 5.475 5.003 6.879 4.568 3.893-1.207-5.872-11.354-25.976-19.172-37.889-14.734M110.68 380.32c-1.461 10.654-3.781 12.383-10.317 7.689-7.853-5.64-7.878-1.225-.056 9.741 3.738 5.24 4.304 5.263 6.305.261 1.504-3.757 12.333-15.011 14.445-15.011 2.418 0 .521-2.727-3.307-4.754-5.794-3.069-6.389-2.895-7.07 2.074M64 379.105c0 7.344 14.862 24.906 27.829 32.885 7.029 4.325 7.461 3.295 1.108-2.639-6.52-6.09-12.878-14.308-16.296-21.063C73.335 381.751 64 374.971 64 379.105m226 25.243c0 .81 11.36 11.625 11.775 11.21.833-.833-1.782-6.937-3.969-9.265-1.756-1.869-7.806-3.377-7.806-1.945" fill-rule="evenodd"/>
<path fill="#0d0505" stroke="#0d0505" d="M172.753 90.265c-15.906 13.732-28.046 46.478-29.441 79.409-.33 7.796-.873 14.57-1.206 15.053-.598.868-18.301 4.448-23.057 4.662-7.602.344-17.31-33.322-17.462-60.553-.095-17.184-.386-17.668-4.983-8.28-7.622 15.565-7.411 41.251.52 63.444 4.749 13.287 4.922 12.125-2.448 16.435-39.332 23.002-50.627 68.131-23.013 91.942 4.279 3.69 4.22 4.042-1.126 6.712-6.377 3.184-14.792 12.033-18.625 19.584-2.739 5.397-4.068 6.879-7.915 8.829-10.939 5.543-17.929 18.479-18.166 33.623-.182 11.553 11.776 33.067 29.997 53.972 6.088 6.984 22.01 11.33 41.672 11.374 17.981.04 22.872-2.238 20.348-9.478-1.03-2.953-.892-3.388 1.768-5.562 4.546-3.718 5.384-3.184 5.384 3.434 0 6.413 2.532 11.135 5.97 11.135 1.004 0 5.087-2.552 9.073-5.671 3.986-3.118 9.702-6.668 12.703-7.888l5.456-2.217 11.837 5.375c33.788 15.34 69.353 16.201 96.465 2.336 4.408-2.255 8.257-3.608 9.268-3.26.95.328 6.744 2.785 12.875 5.461 19.939 8.7 26.073 5.066 17.904-10.608l-3.449-6.616 2.699-.958c7.476-2.653 10.125-6.128 8.774-11.511-1.744-6.948-23.504-24.443-30.403-24.443-1.075 0-4.129-1.797-6.788-3.994-5.845-4.831-11.978-6.997-22.32-7.886-6.077-.522-8.687-1.266-11.9-3.393-4.406-2.915-7.893-7.331-6.717-8.507 1.134-1.134 15.249-4.163 24.387-5.233 10.951-1.282 19.252-3.477 26.905-7.114l6.238-2.964 6.762 1.986c60.559 17.788 139.615-8.214 171.734-56.484 34.234-51.448 13.372-80.861-35.473-50.016-6.41 4.048-6.611 4.1-14.505 3.764-12.108-.515-26.165 3.934-36.178 11.451-3.763 2.825-4.183 2.873-7.127.811l-2.255-1.58 1.957-3.17c1.076-1.744 2.484-5.266 3.127-7.826 1.113-4.426 1.4-4.713 5.826-5.826 16.441-4.136 30.81-19.518 34.148-36.555l1.183-6.036 7.22-3.249c22.915-10.312 41.822-40.512 33.406-53.358-10.189-15.553-64.251-8.663-108.802 13.865-32.386 16.378-75.729 53.616-100.172 86.064-7.815 10.373-8.1 10.532-10.778 6-12.721-21.528-50.879-40.676-81.193-40.744-3.544-.008-3.86-1.231-3.837-14.838.041-24.991 7.828-61.229 17.034-79.273 3.118-6.112 2.337-6.498-3.301-1.63m-6.169 9.172c-1.971 3.081-3.584 5.805-3.584 6.053 0 .248-1.107 2.872-2.461 5.831-10.354 22.636-14.655 66.761-8.773 90.008 2.681 10.597 2.65 9.671.323 9.671-3.565 0-9.058-8.939-9.083-14.781-.009-2.025-2.279-2.389-7.587-1.216-13.779 3.044-13.731 3-10.419 9.497 3.775 7.404 2.224 10.932-2.393 5.445-13.674-16.251-25.702-56.168-24.361-80.85l.521-9.595-1.918 4c-2.781 5.801-2.119 32.281 1.101 44 4.311 15.689 11.657 32.088 21.273 47.485 1.461 2.339.61 3.414-2.036 2.574-2.107-.668-5.06-3.279-9.399-8.311l-2.711-3.144-6.563 3.647c-30.36 16.875-38.891 51.527-18.209 73.965 6.966 7.556 18.934 14.724 35.547 21.29 6.641 2.625 8.004 3.495 6.657 4.249-2.003 1.121-15.711-.668-22.326-2.914-5.757-1.955-5.869-1.699-3.352 7.704 6.84 25.557 22.1 37.955 46.718 37.955 15.3 0 42.849-8.664 51.951-16.338l3-2.529-2.637-4.816C192.82 322.76 191 315.093 191 307.834c0-4.371-.24-4.991-1.75-4.51-.963.306-5.788 1.96-10.723 3.675-10.376 3.606-28.863 6.051-32.718 4.326-2.099-.939-1.763-1.184 3.691-2.69 49.564-13.69 77.545-36.648 80.242-65.84 2.331-25.226-25.219-47.791-59.86-49.031-8.324-.298-7.561-1.228-7.783 9.486-.106 5.108-2.09 6.505-4.046 2.849-2.182-4.077-4.219-21.817-4.125-35.909.169-25.194 4.031-44.648 13.054-65.767 4.792-11.215 4.658-12.89-.398-4.986m261.304 18.51c-16.707 1.736-33.309 6.476-49.724 14.193-5.685 2.673-10.467 4.86-10.627 4.86-.891 0-22.778 12.668-27.941 16.172-27.816 18.877-59.052 49.28-70.599 68.716-9.25 15.57-11.49 31.149-6.559 45.612 2.689 7.886 2.682 8.209-.134 5.756-4.713-4.104-9.304-17.248-9.304-26.638 0-7.423-1.587-6.525-3.574 2.023-6.949 29.894 30.534 63.204 78.762 69.992 63.317 8.913 131.634-30.22 150.366-86.133 3.152-9.408 3.312-11.886.934-14.514-5.672-6.267-28.148.453-41.096 12.286l-5.295 4.84-4.584-1.556c-10.1-3.429-26.553.397-35.8 8.325-9.24 7.922-9.676 8.103-15.685 6.54-6.378-1.659-14.334-.18-21.503 3.998-17.106 9.967-36.149 13.635-49.801 9.591-5.366-1.589-3.923-2.625 4.753-3.412 24.16-2.189 46.568-14.839 54.203-30.598 3.363-6.942 3.308-7.324-1.18-8.133-10.912-1.966-20.943-3.977-21.22-4.254-.171-.171 4.593-.608 10.586-.972 28.956-1.759 45.53-10.97 57.56-31.991 3.422-5.979 2.954-6.538-6.464-7.721-7.406-.93-10.376-1.929-5.734-1.929 3.221 0 14.987-3.594 20.272-6.192 20.845-10.246 38.739-31.437 37.606-44.532-.329-3.799-13.654-5.844-28.218-4.329m-33.699 15.516c-25.678 8.3-52.02 25.175-72.503 46.447-10.146 10.537-12.627 15.006-10.3 18.556 4.803 7.331 13.596 2.086 30.071-17.939 16.446-19.99 34.111-34.478 53.558-43.928C400.22 134.07 405.02 132 405.68 132c.661 0 1.48-.45 1.82-1 1.039-1.681-2.537-1.02-13.311 2.463m-206.482 86.954c-3.121 1.88-8.27 5.648-11.441 8.374-6.967 5.989-9.201 7.209-13.2 7.209-2.026 0-3.066.497-3.066 1.465 0 2.036 3.72 3.822 6.505 3.123 1.976-.496 2.635.071 4.453 3.826 2.849 5.883 3.961 6.091 10.75 2.003 5.924-3.567 13.879-6.417 17.914-6.417 1.243 0 2.502-.392 2.798-.871.735-1.188-2.183-12.112-3.961-14.829-1.302-1.99-1.24-2.34.659-3.67 1.154-.809 1.798-1.956 1.431-2.55-1.325-2.144-7.164-1.081-12.842 2.337m269.793 4.987c-6.569 2.087-13.718 6.123-18.5 10.446-5.078 4.591-3.556 5.695 2.337 1.696 1.988-1.349 7.564-4.562 12.389-7.139 12.181-6.505 13.339-8.041 3.774-5.003m-270.845 1.425c-3.262 3.604-.575 9.229 3.637 7.612 1.182-.453 3.708-4.484 3.708-5.917 0-2.982-5.112-4.162-7.345-1.695m-99.451 6.773c-1.601 1.18-1.599 1.296.046 1.934 1.39.539 1.766 1.94 1.826 6.821.167 13.517 5.919 20.015 14.609 16.506 1.548-.625 6.865-1.203 11.815-1.284l9-.148-.219-3.704c-.187-3.162.133-3.793 2.177-4.306 3.022-.758 5.192-3.141 6.072-6.671.776-3.107-.725-3.698-3.173-1.25-2.271 2.271-4.302 1.893-16.358-3.045-12.236-5.011-22.865-7.011-25.795-4.853m320.174 8.281c-7.995 2.782-16.378 7.407-16.378 9.036 0 .492 1.012.645 2.25.342 1.91-.469 26.744-11.051 27.514-11.725 1.521-1.33-7.226.203-13.386 2.347m-299.048 1.7c-.973 2.536 2.981 5.807 6.079 5.029 1.425-.357 2.591-1.284 2.591-2.06 0-3.799-7.382-6.327-8.67-2.969m77.672 9.662c-1.373.722-2.498 2.169-2.5 3.218-.005 4.209-27.521 15.138-44.223 17.564-11.476 1.667-22.801 1.009-24.584-1.429-1.594-2.18-7.195-.336-7.195 2.37 0 2.547 16.334 5.283 27.5 4.606 21.836-1.325 47.916-11.39 53.35-20.59 1.469-2.486 1.984-2.658 6.621-2.213 3.264.314 5.029.1 5.029-.609 0-2.875-10.078-4.975-13.998-2.917m50.398 10.581c-26.927 19.512-12.658 67.122 19.456 64.921 7.084-.485 13.191-2.396 14.517-4.541.274-.445-2.605-.281-6.398.363-13.806 2.345-25.397-2.425-32.051-13.192-2.9-4.692-2.049-5.046 3.568-1.484 5.752 3.648 9.328 4.511 15.1 3.645 5.307-.795 5.361-1.207.959-7.335-7.184-9.999-12.028-26.266-11.302-37.953.248-3.988.361-7.25.251-7.25-.11 0-1.955 1.272-4.1 2.826m14.767 19.927c6.026 13.608 16.457 24.821 28.963 31.136 9.976 5.037 13.666 5.108 6.318.122-8.342-5.66-16.269-12.948-22.745-20.909-3.401-4.181-7.088-8.375-8.193-9.319-2.026-1.73-4.962-2.427-4.343-1.03m-41.858 7.997c-7.932 8.364-8.809 10.074-8.809 17.172 0 11.375 7.601 22.932 16.974 25.809 4.936 1.515 5.211.022.485-2.634-5.293-2.975-5.029-4.331.791-4.06 2.613.122 5.305.163 5.984.092.707-.074-.702-3.015-3.295-6.879-6.06-9.031-8.898-18.433-8.11-26.869.698-7.475.622-7.525-4.02-2.631M72.59 306.53C63.314 309.719 54.062 324 61.272 324c3.773 0 11.945 4.613 16.759 9.46 5.578 5.617 6.458 5.627 7.85.097 4.233-16.808-2.6-30.702-13.291-27.027m-21.453 25.839c-14.867 5.38-22.093 26.857-15.769 46.869 7.648 24.203 32.54 41.223 60.331 41.25 14.626.014 16.927-1.071 11.318-5.338-12.431-9.457-23.353-23.868-27.019-35.65-.684-2.2-2.036-4.9-3.004-6-2.133-2.423-5.302-8.525-4.727-9.1.227-.228 2.223.897 4.434 2.498 2.211 1.602 7.538 4.538 11.838 6.525 4.3 1.986 9.361 4.789 11.248 6.228 4.44 3.387 5.407 2.095 4.977-6.651-.773-15.704-11.686-26.388-27.032-26.466-5.665-.028-6.49-.238-5.059-1.284.94-.687 2.748-1.25 4.018-1.25 6.731 0-2.011-9.201-11.021-11.6-6.204-1.652-10.032-1.66-14.533-.031m147.918 8.162c-18.689 13.197-63.188 20.335-78.15 12.537-10.371-5.406 4.556 15.875 15.758 22.465 15.925 9.369 46.216 6.025 69.337-7.654 10.521-6.224 10.648-6.365 9.116-10.145-.72-1.779-2.186-5.927-3.258-9.217-3.339-10.256-6.658-12.326-12.803-7.986M103 354.416c0 .424 1.827 3.541 4.06 6.927 4.279 6.49 8.823 10.339 15.44 13.081l4 1.658-3-2.848a6405.14 6405.14 0 0 1-11.75-11.218c-4.812-4.604-8.75-8.024-8.75-7.6m129.074 2.438c-3.373.975-3.565 2.463-.742 5.746l2.426 2.82 3.871-3.399c2.129-1.869 3.871-3.876 3.871-4.46 0-1.257-5.973-1.705-9.426-.707m17.92 3.02c-11.786 3.867-13.57 9.208-5.343 15.99 4.879 4.022 5.695 3.955 10.465-.863 4.271-4.314 10.613-8.001 13.762-8.001 2.949 0 5.122-1.06 5.122-2.498 0-3.301-17.67-6.707-24.006-4.628m-36.494 8.143c-18.947 11.409-45.902 19.768-60.25 18.685-8.207-.62-8.535-.297-4 3.948 16.998 15.912 39.755 17.731 66.496 5.313 7.817-3.63 20.254-11.535 20.254-12.874 0-.341-2.715-3.284-6.034-6.54-3.319-3.255-6.585-7.068-7.258-8.472-1.693-3.532-3.422-3.544-9.208-.06m58.5 2.627c-8.31 2.691-10.382 3.9-13.093 7.643l-2.944 4.065 2.768 2.892c9.985 10.431 38.29 16.559 47.776 10.343 11.462-7.51-19.416-29.831-34.507-24.943m-161.519 8.106c-1.816 11.185-4.098 12.989-10.533 8.327-7.291-5.281-8.134-1.215-1.758 8.482 5.3 8.062 6.277 8.418 8.644 3.149 2.124-4.725 8.889-11.996 13.271-14.262 4.065-2.102 3.611-3.535-2.12-6.696-6.404-3.532-6.775-3.483-7.504 1m123.543 10.799C221.3 399.803 199.517 408 184.994 408c-14.345 0 3.484 7.925 22.642 10.064 34.368 3.838 60.057-17.63 36.834-30.782-4.892-2.772-3.935-2.979-10.446 2.267m-115.904 2.236c-3.047 3.047-5.391 6.563-6.453 9.678-3.586 10.526-1.861 11.312 7.519 3.425 4.023-3.382 9.002-7.276 11.064-8.652 4.439-2.962 4.659-4.376 1.115-7.163-4.358-3.429-7.812-2.721-13.245 2.712m16.547 10.04c-3.369 3.518-4.902 8.532-4.103 13.425.779 4.773 1.693 4.709 7.332-.516 2.532-2.346 5.842-5.223 7.354-6.394 3.494-2.703 3.452-3.572-.327-6.751-3.971-3.342-6.892-3.275-10.256.236m136.377-.203c.049.999 28.145 18.378 29.709 18.378 1.812 0 1.955-5.937.235-9.772-2.529-5.642-4.38-6.658-13.391-7.347-4.453-.341-10.01-.961-12.347-1.378-2.352-.42-4.23-.367-4.206.119m-7.784 10.863c-.682.775-.855 1.647-.384 1.939.471.291 1.662-.361 2.645-1.448 1.363-1.505 1.454-1.967.384-1.938-.773.021-1.963.672-2.645 1.447" fill-rule="evenodd"/>
</svg>